<svg xmlns="http://www.w3.org/2000/svg" width="14" height="14" viewBox="0 0 14 14" fill="none">
<path d="M11.3748 7.29168C11.3748 6.48668 12.0282 5.83334 12.8332 5.83334V5.25001C12.8332 2.91668 12.2498 2.33334 9.9165 2.33334H4.08317C1.74984 2.33334 1.1665 2.91668 1.1665 5.25001V5.54168C1.9715 5.54168 2.62484 6.19501 2.62484 7.00001C2.62484 7.80501 1.9715 8.45834 1.1665 8.45834V8.75001C1.1665 11.0833 1.74984 11.6667 4.08317 11.6667H9.9165C12.2498 11.6667 12.8332 11.0833 12.8332 8.75001C12.0282 8.75001 11.3748 8.09668 11.3748 7.29168Z" stroke="#2B6732" stroke-width="1.5" stroke-linecap="round" stroke-linejoin="round"/>
<path d="M5.8335 2.33334L5.8335 11.6667" stroke="#2B6732" stroke-width="1.5" stroke-linecap="round" stroke-linejoin="round" stroke-dasharray="5 5"/>
</svg>